<?xml version="1.0" encoding="UTF-8"?>
<svg xmlns="http://www.w3.org/2000/svg" viewBox="0 0 2362.22 1284.75">
  <g style="isolation: isolate;">
    <g id="Layer_1" data-name="Layer 1">
      <g>
        <g>
          <path d="M2065.59,1190.56H296.54c-11.67-196.62-17.02-390.11-16.47-580.96.33-182.78,6.1-363.06,16.47-541.26,0-8.07,2.17-15.6,5.99-22.02.88-1.31,1.42-2.28,2.28-3.49.77-.99,1.64-2.17,2.61-3.27.44-.33.99-.99,1.42-1.42,7.85-7.63,18.43-12.33,30.2-12.33,135.67-7.41,271.11-12.98,406.34-16.8l2.28-.11h.22c426.85-12.11,851.96-6.54,1275.21,16.91,22.57,0,40.8,17.46,42.2,39.48v3.05l.22-.22c18.1,366.88,18.65,740.84,0,1122.43h.05Z" style="fill: #777df5;"/>
          <path d="M2065.59,1193.3H293.96l-.15-2.58c-11.48-193.51-17.03-389.03-16.48-581.13.32-176.88,5.86-359.04,16.48-541.41,0-8.14,2.2-16.24,6.37-23.26.42-.63.71-1.09.99-1.54.45-.71.88-1.38,1.42-2.14l.57-.75c.67-.88,1.42-1.84,2.22-2.75l.41-.38c.19-.15.4-.39.6-.62.18-.2.36-.39.52-.55,8.72-8.48,20.12-13.13,32.14-13.13,133.74-7.31,270.48-12.97,406.26-16.8l2.58-.11C1173.57-5.91,1602.69-.22,2023.26,23.07c22.51,0,41.54,16.88,44.48,38.96l.22-.22.3,6.17c18.29,370.71,18.29,748.44,0,1122.7l-2.68-.13v2.74ZM299.12,1187.82h1763.8c18.05-371.15,18.11-745.7.18-1113.39l-.53.52v-9.66c-1.32-20.53-18.65-36.74-39.46-36.74C1602.54,5.25,1173.57-.43,747.98,11.64h-.3s-2.15.11-2.15.11c-135.79,3.84-272.48,9.49-406.32,16.8-10.73,0-20.78,4.11-28.44,11.55-.09.09-.22.24-.36.38-.32.35-.68.73-1.07,1.06-.66.76-1.27,1.56-1.83,2.29l-.52.68c-.41.58-.78,1.17-1.18,1.8-.3.47-.61.97-.98,1.52-3.59,6.06-5.53,13.19-5.53,20.5-10.61,182.43-16.15,364.48-16.47,541.26-.55,191.13,4.94,385.66,16.31,578.21Z" style="fill: #223656;"/>
        </g>
        <g>
          <path d="M1985.3,1120.89c0,5.26-4.25,9.71-9.51,9.71H388.27c-5.26,0-9.52-4.45-9.52-9.71-22.57-245.06-27.3-495.65-16.21-751.15,0-.15,0-.31.02-.47.22-5.15.45-10.3.69-15.46,3.66-79.63,8.84-159.73,15.5-240.29,0-5.26,4.26-9.72,9.52-9.72,39.92-1.88,80.06-3.6,120.39-5.15,11.87-.46,23.75-.91,35.66-1.33.33-.02.67-.03,1.01-.04,4.04-.15,8.09-.29,12.14-.43,7.23-.26,14.46-.51,21.7-.75,6.81-.23,13.62-.46,20.44-.68,51.22-1.66,102.77-3.06,154.62-4.22,12-.27,24.01-.52,36.05-.76,68.37-1.38,137.27-2.33,206.68-2.88,12.07-.1,24.16-.18,36.26-.25.67,0,1.34-.01,2.01-.01,68.74-.4,137.97-.4,207.68-.02,12.07.06,24.16.14,36.27.23.34,0,.67,0,1.01.01,69.18.5,138.82,1.37,208.89,2.6,12.01.2,24.02.42,36.06.65,69.63,1.33,139.69,3.01,210.16,5.01,11.59.33,23.18.67,34.79,1.01.33,0,.67.02,1.01.03,13.61.41,27.23.83,40.87,1.26,4.48.14,8.97.29,13.46.43,49.92,1.61,100.03,3.37,150.34,5.29,1.41,0,2.74.32,3.94.89,3.29,1.55,5.58,4.98,5.58,8.83h.01c5.66,69.53,9.95,139.9,12.95,211.05,10.83,256.24,5.04,522.58-12.95,796.32Z" style="fill: #c7eeff;"/>
          <path d="M1674.67,96.85c19.5.5,39.08,1.04,58.74,1.6.68.02,1.35.04,2.03.06,11.52.32,23.07.66,34.65,1.01v-2.67h-95.42ZM557.47,96.85c-4.05.14-8.1.28-12.14.43v2.72c31.54-1.14,63.28-2.19,95.21-3.15h-83.07ZM1733.31,96.85h-58.64c19.5.5,39.08,1.04,58.74,1.6-.03-.53-.06-1.06-.1-1.6ZM557.47,96.85c-4.05.14-8.1.28-12.14.43v2.72c31.54-1.14,63.28-2.19,95.21-3.15h-83.07ZM1998.25,324.57c-3-71.15-7.29-141.52-12.95-211.05h-.01c0-3.85-2.29-7.28-5.58-8.83-1.2-.57-2.53-.89-3.94-.89-50.31-1.92-100.42-3.68-150.34-5.29-4.49-.14-8.98-.29-13.46-.43-13.64-.43-27.26-.85-40.87-1.26-.34,0-.68-.02-1.01-.03-11.61-.34-23.2-.68-34.79-1.01-70.47-2-140.53-3.68-210.16-5.01-12.04-.23-24.05-.45-36.06-.65-70.07-1.23-139.71-2.1-208.89-2.6-.34-.01-.67-.01-1.01-.01-12.11-.09-24.2-.17-36.27-.23-69.71-.38-138.94-.38-207.68.02-.67,0-1.34.01-2.01.01-12.1.07-24.19.15-36.26.25-69.41.55-138.31,1.5-206.68,2.88-12.04.24-24.05.49-36.05.76-51.85,1.16-103.4,2.56-154.62,4.22-6.82.22-13.63.45-20.44.68-7.24.24-14.47.49-21.7.75-4.05.14-8.1.28-12.14.43-.34.01-.68.02-1.01.04-11.91.42-23.79.87-35.66,1.33-40.33,1.55-80.47,3.27-120.39,5.15-5.26,0-9.52,4.46-9.52,9.72-6.66,80.56-11.84,160.66-15.5,240.29-.24,5.16-.47,10.31-.69,15.46,0,.16-.02.32-.02.47-11.09,255.5-6.36,506.09,16.21,751.15,0,5.26,4.26,9.71,9.52,9.71h1587.52c5.26,0,9.51-4.45,9.51-9.71,17.99-273.74,23.78-540.08,12.95-796.32ZM1982.57,1120.89c0,3.78-3.11,6.97-6.78,6.97H388.27c-3.67,0-6.78-3.19-6.78-6.97v-.25c-21.01-227.92-26.85-467.76-17.55-716,0-.15,0-.31.02-.46.2-5.34.4-10.69.62-16.04.23-5.63.46-11.27.7-16.92.01-.14.01-.29.02-.44.24-5.51.48-11.03.73-16.56,3.62-79.37,8.76-159.57,15.45-240.48v-.22c0-3.78,3.12-6.98,6.92-6.98,39.19-1.85,78.66-3.55,118.43-5.09.66-.03,1.31-.05,1.97-.08,11.81-.46,23.65-.9,35.52-1.33.34-.02.67-.03,1.01-.04,31.54-1.14,63.28-2.19,95.21-3.15,37.67-1.12,75.61-2.12,113.84-2.97,11.94-.27,23.9-.53,35.9-.77.32,0,.65,0,.97-.02,6.32-.13,12.65-.26,18.99-.38,61.52-1.17,123.79-2,186.87-2.5,12.01-.1,24.04-.19,36.11-.26.67-.01,1.34-.01,2.01-.02h.56c14.43-.08,28.91-.14,43.43-.19,20.06-.07,40.2-.1,60.43-.1,34.23,0,68.69.09,103.41.28,12.01.07,24.05.15,36.12.24h1.01c11.16.09,22.34.18,33.56.28,57.79.53,116.27,1.32,175.48,2.36,11.79.21,23.6.43,35.45.66.15,0,.31,0,.46,0,7.93.15,15.86.3,23.81.47,41.55.84,83.45,1.81,125.72,2.91,19.5.5,39.08,1.04,58.74,1.6.68.02,1.35.04,2.03.06,11.52.32,23.07.66,34.65,1.01.33,0,.67.02,1.01.03,67.27,2.02,135.48,4.35,204.67,6.99.74,0,1.46.13,2.13.37.71.25,1.38.63,1.97,1.11,1.62,1.28,2.68,3.29,2.68,5.5v2.74h.23c5.61,69.32,9.93,140.04,12.95,212.41.45,10.67.87,21.38,1.26,32.13,8.48,233.63,3.67,484.48-14.42,760.09ZM557.47,96.85c-4.05.14-8.1.28-12.14.43v2.72c31.54-1.14,63.28-2.19,95.21-3.15h-83.07ZM1733.31,96.85h-58.64c19.5.5,39.08,1.04,58.74,1.6-.03-.53-.06-1.06-.1-1.6Z" style="fill: #223656;"/>
        </g>
        <g>
          <path d="M2358.39,1218.24c-9.61,28.47-33.58,48.63-61.51,48.63-751.08,20.51-1494.75,20.07-2231.56,0-27.92,0-51.92-20.18-61.51-48.63-4.58-13.62,6.01-27.7,20.4-27.7,313-7.09,625.77-11.23,938.56-12.55,147.01-.77,294.14-.77,441.13,0,311.47,1.31,622.83,5.46,934.08,12.55,14.39,0,24.98,14.06,20.4,27.7Z" style="fill: #5d6bf4;"/>
          <path d="M1181.79,1284.75c-372.86,0-745.82-5.05-1116.53-15.14-28.09,0-53.85-20.29-64.03-50.49-2.42-7.2-1.23-14.92,3.26-21.17,4.57-6.35,11.94-10.15,19.73-10.15,309.53-7.01,625.32-11.23,938.55-12.54,146.37-.76,294.8-.76,441.15,0,312.01,1.32,626.29,5.54,934.13,12.54,7.73,0,15.1,3.79,19.67,10.14,4.5,6.25,5.69,13.97,3.27,21.18h0c-10.19,30.2-35.95,50.5-64.1,50.5-369.68,10.09-742.33,15.14-1115.1,15.14ZM1183.33,1180.16c-73.69,0-147.36.19-220.54.57-313.19,1.32-628.96,5.54-938.51,12.54-6.09,0-11.8,2.94-15.34,7.86-3.45,4.81-4.37,10.72-2.52,16.23,9.43,27.97,33.1,46.77,58.91,46.77,741.3,20.19,1492.06,20.19,2231.48,0,25.87,0,49.55-18.79,58.98-46.76h0c1.85-5.51.93-11.43-2.52-16.23-3.54-4.92-9.25-7.86-15.28-7.86-307.87-7.01-622.12-11.23-934.1-12.54-73.17-.38-146.88-.57-220.57-.57Z" style="fill: #223656;"/>
        </g>
        <path d="M1403.91,1178.01c-16.47,24.54-33.91,45.58-42.31,45.58h-361.2c-8.4,0-23.56-21.06-37.62-45.58,147.01-.77,294.14-.77,441.13,0h0Z" style="fill: #223656;"/>
        <g style="isolation: isolate; mix-blend-mode: multiply; opacity: .25;">
          <path d="M1985.31,113.52c21.99,346.7,22.92,682.95,0,1007.37,0,5.26-4.25,9.72-9.51,9.72H388.27c792.85,0,1597.04-367.86,1597.04-1017.08h0Z" style="fill: #92e3ff;"/>
        </g>
        <g style="isolation: isolate; mix-blend-mode: multiply; opacity: .25;">
          <path d="M747.71,8.9l-376.03,54.42c-23.23,3.16-28.69,26.94-31.3,50.16l-60.32,496.11c.33-182.78,6.1-363.06,16.47-541.26,0-8.07,2.17-15.6,5.99-22.02.88-1.31,1.42-2.28,2.28-3.49.77-.99,1.64-2.17,2.61-3.27.44-.33.99-.99,1.42-1.42,7.85-7.63,18.43-12.33,30.2-12.33l406.34-16.8,2.28-.11h.04Z" style="fill: #304df2;"/>
        </g>
        <path d="M680.37,153.81c-296.92-48.65-258.16,138.81-253.31,219.01,0,10.83,14.77,14.1,19.25,4.24,45.27-99.98,124.27-167.82,237-203.49,11.07-3.51,8.67-19.74-2.94-19.74h0v-.02Z" style="fill: #fff;"/>
        <g>
          <g>
            <path d="M607.32,668.78l-38.01-12.33-1.94-7.14-25.38-93.15h-56.33c-9.24,0-16.71-7.48-16.71-16.72s7.47-16.72,16.71-16.72h69.1c3.6,0,6.97,1.15,9.74,3.14,3.04,2.18,5.34,5.37,6.39,9.18l36.44,133.73Z" style="fill: #51b5f2;"/>
            <path d="M609.35,670.92l-41.2-13.37-27.24-99.99h-55.26c-9.99,0-18.12-8.13-18.12-18.12s8.13-18.12,18.12-18.12h69.1c3.82,0,7.47,1.18,10.56,3.41,3.36,2.41,5.82,5.94,6.92,9.95l37.12,136.24ZM570.46,655.35l34.82,11.29-35.75-131.23c-.93-3.39-3.01-6.38-5.85-8.41-2.62-1.88-5.7-2.88-8.93-2.88h-69.1c-8.44,0-15.31,6.87-15.31,15.31s6.87,15.31,15.31,15.31h57.4l27.4,100.6Z" style="fill: #192e58;"/>
          </g>
          <g>
            <path d="M481.3,531.5c7.43-3.49,16.87-4.17,24.9-2.83,2.09.36,4.16.85,6.15,1.59.66.24,1.32.49,1.97.77.49.2.71.76.51,1.25-.17.41-.59.63-1,.58-1.02-.06-2.02-.16-3.03-.28-.98-.06-2.04-.13-3-.22-.72-.04-2.3-.09-2.99-.14-.62,0-2.34-.04-2.99-.06-4.66,0-9.3.27-13.95.65-1.95.16-4.15.37-6.08.52-1.04.07-1.43-1.35-.5-1.82h0Z" style="fill: #fff;"/>
            <path d="M478.91,533.44c.61-.46.14-1.17-.05-1.26-.39-.18-.84-.23-1.26-.12-.26.07-.51.19-.68.4s-.26.49-.19.75c.29,1.06,1.69.6,2.18.23h0Z" style="fill: #fff;"/>
          </g>
          <g style="mix-blend-mode: multiply; opacity: .32;">
            <path d="M607.32,668.78l-38.01-12.33-1.94-7.14c.3-.95.59-1.91.88-2.88,14.46-48.73,5.26-93.22-3.75-120.57,3.04,2.18,5.34,5.37,6.39,9.18l36.44,133.73Z" style="fill: #51b5f2;"/>
          </g>
          <g>
            <path d="M838.93,606.31v66.87c0,9.24-7.47,16.71-16.72,16.71h-167.16c-9.24,0-16.72-7.47-16.72-16.71v-66.87c0-9.24,7.48-16.72,16.72-16.72h167.16c.79,0,1.57.05,2.33.16,8.14,1.13,14.39,8.11,14.39,16.56Z" style="fill: #feb13d;"/>
            <path d="M822.22,691.29h-167.16c-9.99,0-18.12-8.13-18.12-18.12v-66.87c0-9.99,8.13-18.12,18.12-18.12h167.16c.85,0,1.7.06,2.53.18,8.89,1.23,15.59,8.95,15.59,17.95v66.87c0,9.99-8.13,18.12-18.12,18.12ZM655.05,590.99c-8.44,0-15.31,6.87-15.31,15.31v66.87c0,8.44,6.87,15.31,15.31,15.31h167.16c8.44,0,15.31-6.87,15.31-15.31v-66.87c0-7.6-5.66-14.12-13.18-15.17-.7-.1-1.42-.15-2.14-.15h-167.16Z" style="fill: #192e58;"/>
          </g>
          <path d="M676.13,596.85c-34.8-5.7-30.26,16.27-29.69,25.67,0,1.27,1.73,1.65,2.26.5,5.31-11.72,14.56-19.67,27.78-23.85,1.3-.41,1.02-2.31-.34-2.31h0Z" style="fill: #fff;"/>
          <g style="mix-blend-mode: multiply; opacity: .37;">
            <path d="M838.93,673.18l-117.8,16.71-6.12.87.47-.87c29.17-7.08,51.95-27.68,58.81-54.08,5.46-21.03-.94-39.02-3.99-46.22h51.92c.79,0,1.57.05,2.33.16l14.39,83.42Z" style="fill: #feb13d;"/>
          </g>
          <g>
            <path d="M934.34,527.62c-6.53-6.53-17.11-6.53-23.64,0l-21.61,21.61-21.61-21.61c-6.53-6.53-17.11-6.53-23.64,0-6.53,6.53-6.53,17.11,0,23.64l33.43,33.43c3.27,3.27,7.54,4.9,11.82,4.9s8.55-1.63,11.82-4.9l33.43-33.43c6.53-6.53,6.53-17.11,0-23.64h0Z" style="fill: #fe77b8;"/>
            <path d="M889.08,591c-4.84,0-9.39-1.88-12.81-5.31l-33.43-33.43c-3.42-3.42-5.31-7.97-5.31-12.81s1.89-9.39,5.31-12.81c7.06-7.06,18.56-7.06,25.62,0l20.62,20.62,20.62-20.62c7.06-7.06,18.56-7.06,25.62,0,3.42,3.42,5.31,7.97,5.31,12.81s-1.89,9.39-5.31,12.81l-33.43,33.43c-3.42,3.42-7.97,5.31-12.81,5.31ZM855.65,524.14c-3.92,0-7.84,1.49-10.83,4.48-2.89,2.89-4.49,6.74-4.49,10.83s1.59,7.93,4.49,10.83l33.43,33.43c2.89,2.89,6.74,4.49,10.83,4.49s7.93-1.59,10.83-4.49l33.43-33.43c2.89-2.89,4.49-6.74,4.49-10.83,0-4.09-1.59-7.93-4.49-10.83h0c-5.97-5.97-15.68-5.97-21.65,0l-22.61,22.61-22.61-22.61c-2.98-2.98-6.91-4.48-10.83-4.48Z" style="fill: #192e58;"/>
          </g>
          <g>
            <path d="M900.9,584.69l33.43-33.43c6.53-6.53,6.53-17.11,0-23.64-6.53-6.53-17.11-6.53-23.64,0l-21.61,21.61v40.36c4.28,0,8.56-1.63,11.82-4.9Z" style="fill: #fe77b8;"/>
            <path d="M889.08,590.99h-1.4v-42.34l22.03-22.03c7.06-7.06,18.56-7.06,25.62,0,7.06,7.07,7.06,18.56,0,25.62l-33.43,33.43c-3.42,3.42-7.97,5.31-12.81,5.31ZM890.49,549.82v38.3c3.56-.32,6.86-1.86,9.42-4.42l.99.99-.99-.99,33.43-33.43c5.97-5.97,5.97-15.68,0-21.65s-15.68-5.97-21.65,0l-21.2,21.2Z" style="fill: #192e58;"/>
          </g>
          <g>
            <path d="M972.67,572.87v100.3c0,9.24-7.47,16.71-16.72,16.71h-133.73c-9.24,0-16.71-7.47-16.71-16.71v-100.3c0-9.24,7.47-16.71,16.71-16.71h133.73c9.24,0,16.72,7.47,16.72,16.71Z" style="fill: #83d689;"/>
            <path d="M955.95,691.29h-133.73c-9.99,0-18.12-8.13-18.12-18.12v-100.3c0-9.99,8.13-18.12,18.12-18.12h133.73c9.99,0,18.12,8.13,18.12,18.12v100.3c0,9.99-8.13,18.12-18.12,18.12ZM822.22,557.56c-8.44,0-15.31,6.87-15.31,15.31v100.3c0,8.44,6.87,15.31,15.31,15.31h133.73c8.44,0,15.31-6.87,15.31-15.31v-100.3c0-8.44-6.87-15.31-15.31-15.31h-133.73Z" style="fill: #192e58;"/>
          </g>
          <g>
            <ellipse cx="848.29" cy="536.02" rx="4.39" ry="2.59" transform="translate(128.24 1234.91) rotate(-76.43)" style="fill: #fff;"/>
            <ellipse cx="847.81" cy="544.4" rx="1.28" ry="2.24" transform="translate(-92.49 182.47) rotate(-11.65)" style="fill: #fff;"/>
          </g>
          <path d="M845.49,564.98c-34.8-5.7-30.26,16.27-29.69,25.67,0,1.27,1.73,1.65,2.26.5,5.31-11.72,14.56-19.67,27.78-23.85,1.3-.41,1.02-2.31-.34-2.31h0Z" style="fill: #fff;"/>
          <g style="mix-blend-mode: multiply; opacity: .37;">
            <path d="M972.67,572.87v93.68l-167.16-6.28-10.24-.39,10.24-2.17,105.86-22.49c19.73-4.19,34.77-20.22,37.7-40.18l5.7-38.88h1.19c9.24,0,16.72,7.47,16.72,16.71Z" style="fill: #83d689;"/>
          </g>
          <g>
            <path d="M922.52,957.36h-267.47c-9.21,0-16.72-7.49-16.72-16.72,0-8.64,6.46-15.79,15.02-16.64,9.17-.91,15.9-9.11,14.95-18.3-.88-9.17-9.11-15.56-18.28-14.97-25.73,2.56-45.12,24.01-45.12,49.9,0,27.65,22.5,50.15,50.15,50.15h267.47c9.24,0,16.72-7.48,16.72-16.72s-7.48-16.72-16.72-16.72Z" style="fill: #51b5f2;"/>
            <path d="M922.52,992.19h-267.47c-28.43,0-51.55-23.13-51.55-51.55,0-26.61,19.94-48.67,46.39-51.3,10.19-.65,18.88,6.48,19.82,16.23.49,4.8-.92,9.51-3.98,13.26-3.07,3.76-7.41,6.09-12.24,6.57-7.84.78-13.75,7.33-13.75,15.24,0,8.44,6.87,15.31,15.31,15.31h267.47c9.99,0,18.12,8.13,18.12,18.12s-8.13,18.12-18.12,18.12ZM651.21,892.1c-.36,0-.73.01-1.09.04-24.95,2.49-43.81,23.34-43.81,48.5,0,26.88,21.87,48.75,48.75,48.75h267.47c8.44,0,15.31-6.87,15.31-15.31s-6.87-15.31-15.31-15.31h-267.47c-9.99,0-18.12-8.13-18.12-18.12,0-9.36,7-17.11,16.29-18.03,4.07-.41,7.75-2.38,10.34-5.55,2.58-3.17,3.78-7.15,3.36-11.2-.76-7.89-7.55-13.75-15.7-13.75Z" style="fill: #192e58;"/>
          </g>
          <g>
            <path d="M1039.31,675.92l-33.43,200.6c-1.24,7.46-7.31,13.14-14.85,13.9-181.55,17.96-265.56,26.35-304.15,30.21-42.79,4.27-29.71,2.98-31.82,2.98-7.48,0-14.14-4.98-16.13-12.31l-69.64-254.83h453.53c4.9,0,9.57,2.16,12.77,5.91,3.17,3.75,4.54,8.7,3.72,13.55Z" style="fill: #fa7532;"/>
            <path d="M654.95,925.16c-.36,0-.71-.04-.99-.2-7.74-.49-14.36-5.83-16.39-13.31l-70.12-256.6h455.37c5.32,0,10.37,2.33,13.83,6.4,3.45,4.09,4.92,9.44,4.04,14.69h0l-33.43,200.6c-1.34,8.06-7.96,14.25-16.1,15.06-188.32,18.63-272.47,27.04-304.15,30.21l-5.95.59c-11.41,1.14-17.95,1.79-21.65,2.16-1.85.18-2.99.29-3.67.35-.25.02-.52.05-.79.05ZM571.13,657.86l69.15,253.05c1.8,6.64,7.88,11.28,14.77,11.28.28,0,.51.04.7.1,2.31-.21,8.99-.88,25.03-2.48l5.95-.59c31.68-3.17,115.83-11.57,304.15-30.21,6.88-.69,12.48-5.92,13.61-12.73l33.44-200.6c.75-4.44-.5-8.96-3.41-12.41-2.93-3.44-7.19-5.41-11.69-5.41h-451.69Z" style="fill: #192e58;"/>
          </g>
          <g>
            <g>
              <path d="M922.52,1057.66c-27.65,0-50.15-22.5-50.15-50.15s22.5-50.15,50.15-50.15,50.15,22.5,50.15,50.15-22.5,50.15-50.15,50.15Z" style="fill: #192e58;"/>
              <path d="M922.52,1059.06c-28.43,0-51.55-23.13-51.55-51.55s23.13-51.55,51.55-51.55,51.55,23.13,51.55,51.55-23.13,51.55-51.55,51.55ZM922.52,958.76c-26.88,0-48.75,21.87-48.75,48.75s21.87,48.75,48.75,48.75,48.75-21.87,48.75-48.75-21.87-48.75-48.75-48.75Z" style="fill: #192e58;"/>
            </g>
            <g>
              <circle cx="922.52" cy="1007.51" r="16.72" style="fill: #d9e5ff;"/>
              <path d="M922.52,1025.63c-9.99,0-18.12-8.13-18.12-18.12s8.13-18.12,18.12-18.12,18.12,8.13,18.12,18.12-8.13,18.12-18.12,18.12ZM922.52,992.19c-8.44,0-15.31,6.87-15.31,15.31s6.87,15.31,15.31,15.31,15.31-6.87,15.31-15.31-6.87-15.31-15.31-15.31Z" style="fill: #192e58;"/>
            </g>
          </g>
          <g>
            <g>
              <path d="M688.48,1057.66c-27.65,0-50.15-22.5-50.15-50.15s22.5-50.15,50.15-50.15,50.15,22.5,50.15,50.15-22.5,50.15-50.15,50.15Z" style="fill: #192e58;"/>
              <path d="M688.48,1059.06c-28.43,0-51.55-23.13-51.55-51.55s23.13-51.55,51.55-51.55,51.55,23.13,51.55,51.55-23.13,51.55-51.55,51.55ZM688.48,958.76c-26.88,0-48.75,21.87-48.75,48.75s21.87,48.75,48.75,48.75,48.75-21.87,48.75-48.75-21.87-48.75-48.75-48.75Z" style="fill: #192e58;"/>
            </g>
            <g>
              <circle cx="688.48" cy="1007.51" r="16.72" style="fill: #ecf2ff;"/>
              <path d="M688.48,1025.63c-9.99,0-18.12-8.13-18.12-18.12s8.13-18.12,18.12-18.12,18.12,8.13,18.12,18.12-8.13,18.12-18.12,18.12ZM688.48,992.19c-8.44,0-15.31,6.87-15.31,15.31s6.87,15.31,15.31,15.31,15.31-6.87,15.31-15.31-6.87-15.31-15.31-15.31Z" style="fill: #192e58;"/>
            </g>
          </g>
          <g>
            <path d="M922.52,823.62c-9.24,0-16.72-7.48-16.72-16.72v-66.87c0-9.24,7.48-16.72,16.72-16.72s16.72,7.48,16.72,16.72v66.87c0,9.24-7.48,16.72-16.72,16.72Z" style="fill: #d9e5ff;"/>
            <path d="M922.52,825.03c-9.99,0-18.12-8.13-18.12-18.12v-66.87c0-9.99,8.13-18.12,18.12-18.12s18.12,8.13,18.12,18.12v66.87c0,9.99-8.13,18.12-18.12,18.12ZM922.52,724.73c-8.44,0-15.31,6.87-15.31,15.31v66.87c0,8.44,6.87,15.31,15.31,15.31s15.31-6.87,15.31-15.31v-66.87c0-8.44-6.87-15.31-15.31-15.31Z" style="fill: #192e58;"/>
          </g>
          <g>
            <path d="M721.92,823.62c-9.24,0-16.72-7.48-16.72-16.72v-66.87c0-9.24,7.48-16.72,16.72-16.72s16.72,7.48,16.72,16.72v66.87c0,9.24-7.48,16.72-16.72,16.72Z" style="fill: #ecf2ff;"/>
            <path d="M721.92,825.03c-9.99,0-18.12-8.13-18.12-18.12v-66.87c0-9.99,8.13-18.12,18.12-18.12s18.12,8.13,18.12,18.12v66.87c0,9.99-8.13,18.12-18.12,18.12ZM721.92,724.73c-8.44,0-15.31,6.87-15.31,15.31v66.87c0,8.44,6.87,15.31,15.31,15.31s15.31-6.87,15.31-15.31v-66.87c0-8.44-6.87-15.31-15.31-15.31Z" style="fill: #192e58;"/>
          </g>
          <g>
            <path d="M822.22,823.62c-9.24,0-16.72-7.48-16.72-16.72v-66.87c0-9.24,7.48-16.72,16.72-16.72s16.72,7.48,16.72,16.72v66.87c0,9.24-7.48,16.72-16.72,16.72Z" style="fill: #ecf2ff;"/>
            <path d="M822.22,825.03c-9.99,0-18.12-8.13-18.12-18.12v-66.87c0-9.99,8.13-18.12,18.12-18.12s18.12,8.13,18.12,18.12v66.87c0,9.99-8.13,18.12-18.12,18.12ZM822.22,724.73c-8.44,0-15.31,6.87-15.31,15.31v66.87c0,8.44,6.87,15.31,15.31,15.31s15.31-6.87,15.31-15.31v-66.87c0-8.44-6.87-15.31-15.31-15.31Z" style="fill: #192e58;"/>
          </g>
          <g>
            <path d="M590.72,683.81c-.6,8.77,3.7,17.29,10.11,23.21,2.13,1.97,5.55,1,6.35-1.78,1.86-6.5,1.47-11.48-.36-21.83-1.55-8.8-5.27-18.2-10.49-12.44-3.33,3.43-5.26,8.1-5.61,12.85h0Z" style="fill: #fff;"/>
            <path d="M606.14,717.49c.84,2.97,2.22,5.77,4.06,8.24.57.76,1.39,1.57,2.31,1.34,1.1-.27,1.32-1.73,1.24-2.85-.31-3.81-1.72-7.55-3.98-10.64-.85-1.17-1.94-2.27-3.34-1.08s-.71,3.5-.29,4.99h0Z" style="fill: #fff;"/>
          </g>
          <g style="mix-blend-mode: multiply; opacity: .3;">
            <path d="M1039.31,675.92l-33.43,200.6c-1.24,7.46-7.31,13.14-14.85,13.9-181.55,17.96-265.56,26.35-304.15,30.21l204.8-50.02c46.23-11.29,81.96-47.97,92.04-94.48l25.93-119.65h13.18c4.9,0,9.57,2.16,12.77,5.91,3.17,3.75,4.54,8.7,3.72,13.55Z" style="fill: #fa7532;"/>
          </g>
        </g>
        <rect x="1152.39" y="171.14" width="9" height="957.64" style="fill: #5d6bf4;"/>
        <g>
          <g>
            <g>
              <g>
                <path d="M545.33,97.28v165.35c0,67.64-54.84,122.48-122.48,122.48h-1.01c-.19,0-.38,0-.57,0-20.22-.25-39.25-5.41-55.97-14.32-.45-.24-.89-.49-1.34-.73-.47-.26-.93-.52-1.4-.78.22-5.15.45-10.3.69-15.46,3.66-79.63,8.84-159.73,15.5-240.29,0-5.26,4.26-9.72,9.52-9.72,39.92-1.88,80.06-3.6,120.39-5.15,11.87-.46,23.75-.91,35.66-1.33.33-.02.67-.03,1.01-.04Z" style="fill: #fe77b8;"/>
                <path d="M422.85,386.61h-1.01c-.22,0-.43,0-.65-.01-19.67-.24-39.26-5.25-56.6-14.49-.23-.12-.46-.25-.69-.38l-2.88-1.59.04-.93c.22-5.15.45-10.3.69-15.46,3.63-78.9,8.84-159.74,15.5-240.29.03-6.16,4.96-11.16,11.02-11.16,40-1.89,80.51-3.62,120.33-5.15,11.87-.46,23.75-.91,35.67-1.33.31-.02.66-.03,1.02-.04l1.54-.04v166.89c0,68.36-55.62,123.98-123.98,123.98ZM364.1,368.41l1.25.69c.22.12.44.24.66.36,16.92,9.01,36.03,13.91,55.28,14.14.22,0,.39.01.55,0h1.01c66.71,0,120.98-54.27,120.98-120.98V98.84c-11.75.42-23.44.86-35.11,1.31-39.82,1.53-80.32,3.26-120.38,5.15-4.42,0-8.09,3.77-8.09,8.22v.12c-6.66,80.53-11.88,161.35-15.5,240.24-.23,4.85-.44,9.69-.65,14.53Z" style="fill: #192e58;"/>
              </g>
              <g>
                <path d="M790.28,90.44v172.19c0,33.82-13.71,64.44-35.87,86.6-22.17,22.16-52.79,35.87-86.61,35.87-2.83,0-5.63-.1-8.41-.29-.34-.02-.68-.04-1.01-.07-.67-.05-1.35-.11-2.02-.17-.6-.05-1.19-.11-1.79-.18-.28-.03-.55-.06-.83-.09-1.03-.12-2.05-.25-3.07-.39-.32-.04-.63-.09-.94-.14-1.44-.21-2.86-.44-4.28-.71-.72-.13-1.44-.27-2.16-.42-.72-.15-1.44-.3-2.16-.46-.71-.16-1.42-.32-2.13-.49-.12-.03-.23-.06-.34-.08-2.01-.49-4.01-1.03-5.99-1.63-.85-.25-1.68-.51-2.51-.78-.8-.26-1.6-.53-2.38-.8-47.99-16.58-82.45-62.14-82.45-115.77V97.28c4.04-.15,8.09-.29,12.14-.43,7.23-.26,14.46-.51,21.7-.75,6.81-.23,13.62-.46,20.44-.68,51.22-1.66,102.77-3.06,154.62-4.22,12-.27,24.01-.52,36.05-.76Z" style="fill: #feb13d;"/>
                <path d="M667.8,386.6c-2.79,0-5.65-.1-8.51-.29-.4-.02-.73-.04-1.04-.07-.65-.05-1.33-.11-2-.17-.62-.05-1.23-.11-1.84-.18l-.82-.09c-1.05-.12-2.08-.25-3.11-.39-.32-.04-.64-.09-.97-.14-1.57-.23-2.99-.47-4.33-.72-.72-.13-1.45-.27-2.18-.42-.73-.15-1.45-.3-2.18-.46-.72-.16-1.44-.33-2.16-.5-.15-.04-.2-.05-.25-.06-2.19-.53-4.23-1.09-6.16-1.67-.85-.25-1.7-.52-2.54-.79-.81-.26-1.62-.54-2.41-.81-49.92-17.25-83.46-64.34-83.46-117.19V95.84l1.44-.05c4.04-.15,8.08-.29,12.13-.43,7.25-.26,14.48-.51,21.72-.75,6.81-.23,13.62-.46,20.44-.68,50.25-1.63,102.28-3.05,154.63-4.22,12-.27,24.01-.52,36.05-.76l1.53-.03v173.72c0,33.11-12.9,64.25-36.31,87.66-23.42,23.42-54.56,36.31-87.67,36.31ZM546.83,98.73v163.9c0,51.57,32.73,97.52,81.44,114.35.77.27,1.56.53,2.35.79.82.27,1.63.52,2.47.77,1.89.57,3.88,1.11,5.92,1.61.03,0,.16.03.29.07.75.18,1.45.34,2.16.5.71.16,1.42.31,2.14.45.71.15,1.41.29,2.12.41,1.3.25,2.68.48,4.23.7.32.05.61.1.91.14,1.03.14,2.04.27,3.06.39l.82.09c.6.07,1.17.13,1.75.18.68.06,1.35.12,2.01.17.31.03.61.05.91.06,2.88.2,5.68.29,8.4.29,32.31,0,62.69-12.58,85.55-35.43,22.85-22.85,35.43-53.23,35.43-85.54V91.97c-11.53.23-23.03.47-34.52.73-52.35,1.17-104.36,2.59-154.61,4.22-6.82.22-13.63.45-20.44.68-7.24.24-14.47.49-21.7.75-3.58.12-7.14.25-10.69.38Z" style="fill: #192e58;"/>
              </g>
              <g>
                <path d="M1035.23,87.3v175.33c0,67.64-54.83,122.47-122.47,122.47-.34,0-.68,0-1.01-.01-34.14-.27-64.95-14.51-87-37.28-21.34-22.04-34.47-52.08-34.47-85.18V90.44c68.37-1.38,137.27-2.33,206.68-2.88,12.07-.1,24.16-.18,36.26-.25.67,0,1.34-.01,2.01-.01Z" style="fill: #fe77b8;"/>
                <path d="M912.76,386.6c-.36,0-.71,0-1.06-.01-33.44-.26-64.72-13.67-88.03-37.73-22.5-23.24-34.89-53.86-34.89-86.22V88.97l1.47-.03c67.26-1.36,136.8-2.33,206.7-2.88,12.07-.1,24.16-.18,36.26-.25h3.52s0,176.82,0,176.82c0,68.36-55.61,123.97-123.97,123.97ZM791.78,91.91v170.72c0,31.58,12.09,61.46,34.05,84.14,22.75,23.49,53.26,36.56,85.93,36.82.35.01.66,0,1,.01,66.7,0,120.97-54.27,120.97-120.97V88.81h-.51c-12.09.07-24.18.15-36.25.25-69.38.55-138.4,1.51-205.19,2.85Z" style="fill: #192e58;"/>
              </g>
              <g>
                <path d="M1280.19,87.52v175.11c0,67.64-54.84,122.47-122.48,122.47h-1.01c-.19,0-.38,0-.57-.01-34.11-.43-64.87-14.81-86.81-37.69-21.12-22-34.09-51.87-34.09-84.77V87.3c68.74-.4,137.97-.4,207.68-.02,12.07.06,24.16.14,36.27.23.34,0,.67,0,1.01.01Z" style="fill: #feb13d;"/>
                <path d="M1157.71,386.6h-1.01c-.22,0-.44,0-.65-.01-33.41-.42-64.62-13.97-87.81-38.15-22.25-23.18-34.51-53.65-34.51-85.81V85.81h1.49c67.85-.4,137.73-.41,207.7-.03,12.07.06,24.16.14,36.27.23.34,0,.69,0,1.05.01l1.45.05v176.56c0,68.36-55.62,123.97-123.98,123.97ZM1036.73,88.79v173.84c0,31.38,11.96,61.11,33.67,83.73,22.63,23.6,53.08,36.82,85.75,37.23.23.01.39,0,.55.01h1.01c66.71,0,120.98-54.27,120.98-120.97V89.01c-11.96-.09-23.88-.17-35.79-.23-69.44-.38-138.8-.37-206.17.01Z" style="fill: #192e58;"/>
              </g>
              <g>
                <path d="M1525.14,90.77v171.86c0,67.64-54.83,122.47-122.48,122.47s-122.47-54.83-122.47-122.47V87.52c69.18.5,138.82,1.37,208.89,2.6,12.01.2,24.02.42,36.06.65Z" style="fill: #fe77b8;"/>
                <path d="M1402.66,386.6c-68.36,0-123.97-55.61-123.97-123.97V86.01h1.51c68.53.51,138.82,1.38,208.91,2.61,12.01.2,24.02.42,36.06.65l1.47.03v173.33c0,68.36-55.62,123.97-123.98,123.97ZM1281.69,89.03v173.6c0,66.7,54.27,120.97,120.97,120.97s120.98-54.27,120.98-120.97V92.24c-11.54-.22-23.07-.43-34.58-.62-69.56-1.22-139.32-2.09-207.36-2.59Z" style="fill: #192e58;"/>
              </g>
              <g>
                <path d="M1770.09,96.79v165.84c0,67.45-54.52,122.16-121.89,122.47h-.58c-67.65,0-122.48-54.83-122.48-122.47V90.77c69.63,1.33,139.69,3.01,210.16,5.01,11.59.33,23.18.67,34.79,1.01Z" style="fill: #feb13d;"/>
                <path d="M1648.21,386.6h-.59c-68.36,0-123.98-55.61-123.98-123.97V89.24l1.53.03c68.28,1.3,138.99,2.99,210.17,5.01,10.98.31,21.96.63,32.95.96l3.3.1v167.3c0,33.01-12.83,64.08-36.12,87.47-23.28,23.39-54.27,36.35-87.26,36.5ZM1526.64,92.3v170.33c0,66.7,54.27,120.97,120.98,120.97h.58c32.18-.15,62.43-12.8,85.15-35.62,22.73-22.83,35.24-53.14,35.24-85.35V98.25h-.38c-10.99-.33-21.97-.65-32.95-.97-70.64-2-140.82-3.68-208.62-4.98Z" style="fill: #192e58;"/>
              </g>
              <g>
                <path d="M1998.25,324.57c-.41.7-.83,1.4-1.26,2.1-.41.67-.83,1.34-1.26,2-.6.93-1.21,1.85-1.83,2.76-1.86,2.74-3.83,5.39-5.9,7.96,0,0-.02.03-.04.05-.61.76-1.23,1.51-1.86,2.25-.48.57-.97,1.14-1.47,1.7-.2.25-.42.49-.64.73-.56.63-1.13,1.26-1.72,1.88-1,1.1-2.04,2.17-3.1,3.23-22.16,22.17-52.78,35.88-86.6,35.88-2.83,0-5.64-.1-8.43-.29-.33-.02-.66-.04-.99-.07-.67-.05-1.35-.11-2.02-.17-.6-.05-1.2-.11-1.79-.18-.28-.03-.55-.06-.83-.09-1.03-.12-2.05-.25-3.07-.39-.35-.05-.7-.1-1.05-.15-1.4-.21-2.79-.44-4.17-.7-.73-.13-1.45-.27-2.17-.42-.05,0-.11-.02-.16-.03-.67-.14-1.33-.28-1.99-.43-1.44-.31-2.86-.65-4.27-1.03-.7-.19-1.41-.38-2.11-.57-.7-.2-1.39-.4-2.09-.61-.13-.04-.26-.08-.38-.12s-.25-.08-.37-.12c-1.22-.38-2.43-.77-3.63-1.18-.33-.1-.65-.22-.97-.33-1.39-.49-2.76-1-4.13-1.53-.87-.34-1.73-.69-2.58-1.05-.73-.31-1.45-.62-2.17-.93-.01,0-.03-.02-.05-.02-.6-.27-1.19-.54-1.78-.81-.58-.27-1.16-.55-1.74-.82-.6-.29-1.19-.58-1.77-.87-37.03-18.5-63.37-55.23-67.26-98.42v-.05c-.34-3.65-.51-7.36-.51-11.1V96.79c.33,0,.67.02,1.01.03,13.61.41,27.23.83,40.87,1.26,4.48.14,8.97.29,13.46.43,49.92,1.61,100.03,3.37,150.34,5.29,1.41,0,2.74.32,3.94.89,3.29,1.55,5.58,4.98,5.58,8.83h.01c5.66,69.53,9.95,139.9,12.95,211.05Z" style="fill: #fe77b8;"/>
                <path d="M1892.57,386.61c-2.79,0-5.66-.1-8.53-.29-.39-.02-.71-.04-1.02-.07-.65-.05-1.34-.11-2.02-.17-.61-.05-1.22-.11-1.83-.18l-.81-.09c-1.06-.12-2.09-.25-3.12-.4l-1.06-.15c-1.52-.23-2.9-.46-4.24-.71-.73-.13-1.46-.27-2.2-.43l-.16-.03c-.68-.14-1.35-.28-2.01-.44-1.51-.33-2.93-.67-4.33-1.04l-2.11-.57c-.72-.21-1.42-.41-2.13-.62l-.79-.25c-1.2-.38-2.43-.77-3.64-1.18-.2-.06-.44-.14-.67-.23l-.29-.1c-1.37-.48-2.73-.99-4.19-1.55-.89-.35-1.76-.7-2.62-1.07-.65-.28-1.3-.55-1.94-.83h-.02l-.29-.13-.1-.04-.1-.04c-.45-.2-.9-.41-1.34-.61l-2-.94c-.63-.3-1.22-.6-1.81-.89-18.62-9.3-34.74-23.29-46.62-40.44-12.13-17.52-19.55-37.98-21.46-59.19v-.13c-.34-3.59-.52-7.37-.52-11.15V95.25l2.55.08c13.61.41,27.23.83,40.87,1.26l13.46.43c50.27,1.62,100.85,3.4,150.35,5.29h0c1.54,0,3.07.35,4.52,1.04,3.85,1.81,6.36,5.72,6.43,9.99v.07c5.58,68.53,9.94,139.55,12.96,211.11l.02.44-.22.38c-.42.71-.84,1.42-1.28,2.13-.42.68-.84,1.36-1.28,2.03-.6.94-1.22,1.87-1.85,2.79-1.75,2.57-3.64,5.14-5.64,7.64v.09l-.42.42c-.6.75-1.22,1.49-1.84,2.23-.49.58-.98,1.16-1.49,1.73-.16.21-.4.46-.63.72-.58.65-1.16,1.29-1.76,1.92-.87.96-1.88,2-3.13,3.26-23.41,23.42-54.54,36.32-87.66,36.32ZM1844.04,373.45c.64.28,1.28.55,1.92.82.83.35,1.68.7,2.54,1.03,1.35.52,2.71,1.03,4.08,1.51l.31.11c.2.07.4.14.6.2,1.23.42,2.43.81,3.64,1.18l.75.24c.68.21,1.37.4,2.06.6l2.09.57c1.34.36,2.71.69,4.19,1.01.67.15,1.32.29,1.98.43l.14.03c.72.15,1.43.29,2.14.42,1.31.25,2.66.47,4.13.69l1.04.15c1,.14,2.01.27,3.03.39l.82.09c.59.07,1.17.13,1.75.18.67.06,1.35.12,2.01.17.31.03.6.05.88.06,2.9.2,5.7.29,8.42.29,32.32,0,62.69-12.59,85.54-35.44,1.22-1.22,2.19-2.23,3.05-3.18.6-.63,1.16-1.25,1.71-1.87.22-.25.42-.45.59-.67.54-.61,1.02-1.17,1.5-1.73.53-.62,1.05-1.25,1.57-1.89l.32-.4c2.06-2.56,4.02-5.2,5.82-7.85.61-.9,1.22-1.81,1.81-2.73.43-.65.84-1.31,1.24-1.97.35-.57.69-1.13,1.02-1.7-2.99-70.89-7.31-141.25-12.82-209.17h-.12v-1.5c0-3.19-1.86-6.12-4.73-7.47-1.04-.5-2.15-.75-3.3-.75-49.55-1.89-100.13-3.67-150.39-5.29l-13.46-.43c-13.46-.42-26.9-.84-40.33-1.24v164.29c0,3.69.17,7.38.5,10.96v.14c1.86,20.6,9.11,40.57,20.94,57.66,11.59,16.74,27.33,30.39,45.49,39.46.58.29,1.16.57,1.75.86l1.96.92c.41.19.82.37,1.23.56h.3l.26.25Z" style="fill: #192e58;"/>
              </g>
              <g style="mix-blend-mode: soft-light; opacity: .31;">
                <path d="M544.32,97.32v165.31c0,33.82-13.71,64.44-35.87,86.6s-52.48,35.74-86.1,35.88h-.51c-.19,0-.38,0-.57,0-12.01-.05-23.61-1.83-34.56-5.12-7.94-2.38-15.09-5.42-21.43-8.76-.45-.23-.9-.47-1.34-.71-.47-.26-.94-.51-1.4-.77,0-.15,0-.31.02-.47.22-5.15.45-10.3.69-15.46.44.07.88.14,1.33.2.48.07.96.14,1.45.21,29.23,3.99,71.17,3.33,103.22-23.58,12.15-10.21,19.08-21,22.98-27.18,18.6-29.47,21.16-59.23,19.17-135.51-.52-19.84-1.33-42.14-2.6-66.58-.04-.9-.09-1.81-.14-2.72,11.87-.46,23.75-.91,35.66-1.33Z"/>
              </g>
              <g style="mix-blend-mode: soft-light; opacity: .31;">
                <path d="M790.28,90.44v172.19c0,33.82-13.71,64.44-35.87,86.6-22.17,22.16-52.79,35.87-86.61,35.87-2.83,0-5.63-.1-8.41-.29-.34-.02-.68-.04-1.01-.07-.67-.05-1.35-.11-2.02-.17-.6-.05-1.19-.11-1.79-.18-.28-.03-.55-.06-.83-.09-1.03-.12-2.05-.25-3.07-.39-.32-.04-.63-.09-.94-.14-1.43-.21-2.86-.45-4.28-.71-.72-.13-1.44-.27-2.16-.42-.72-.15-1.44-.3-2.16-.46-.71-.16-1.42-.32-2.13-.49-.12-.03-.23-.06-.34-.08-2.02-.5-4.02-1.04-5.99-1.63-.85-.25-1.68-.51-2.51-.78-.8-.26-1.6-.53-2.38-.8-24.34-8.45-40.47-22.86-48.73-31.42,12.86,3.96,86.44,25.41,136.16-16.35,12.15-10.2,19.08-20.99,22.98-27.17,18.6-29.47,21.16-59.23,19.17-135.51-.57-21.85-1.49-46.67-2.98-74.07-.05-.89-.1-1.78-.15-2.68,12-.27,24.01-.52,36.05-.76Z"/>
              </g>
              <g style="mix-blend-mode: soft-light; opacity: .31;">
                <path d="M1033.22,87.31v175.32c0,33.82-13.71,64.44-35.87,86.6-21.95,21.94-52.18,35.6-85.6,35.86-.33.01-.67.01-1.01.01-12.21,0-24.01-1.79-35.13-5.12-27.08-8.11-44.81-23.88-53.62-33,.73.23,1.65.51,2.76.83,18.37,5.36,86.5,22.21,133.4-17.18,12.15-10.2,19.08-20.99,22.98-27.17,18.6-29.47,21.16-59.23,19.17-135.51-.59-22.81-1.58-48.89-3.19-77.74-.05-.88-.1-1.76-.15-2.65,12.07-.1,24.16-.18,36.26-.25Z"/>
              </g>
              <g style="mix-blend-mode: soft-light; opacity: .31;">
                <path d="M1279.18,87.51v175.12c0,33.82-13.71,64.44-35.87,86.6s-52.47,35.73-86.1,35.87h-.51c-.19,0-.38,0-.57-.01-12.01-.05-23.61-1.83-34.56-5.11-27.08-8.11-44.81-23.88-53.62-33,.4.12.86.26,1.37.42,16.04,4.81,86.61,23.69,134.79-16.77,12.15-10.2,19.08-20.99,22.98-27.17,18.6-29.47,21.16-59.23,19.17-135.51-.6-22.9-1.58-49.06-3.2-78.03l-.15-2.64c12.07.06,24.16.14,36.27.23Z"/>
              </g>
              <g style="mix-blend-mode: soft-light; opacity: .31;">
                <path d="M1525.14,90.77v170.85c0,33.82-13.71,64.44-35.87,86.6-22.16,22.17-52.78,35.88-86.61,35.88-12.21,0-24.01-1.79-35.13-5.13-27.08-8.11-44.81-23.88-53.62-33,12.86,3.96,86.44,25.42,136.16-16.34,12.15-10.21,19.08-21,22.98-27.18,18.6-29.47,21.16-59.23,19.17-135.51-.57-21.86-1.5-46.71-2.99-74.14-.05-.89-.1-1.78-.15-2.68,12.01.2,24.02.42,36.06.65Z"/>
              </g>
              <g style="mix-blend-mode: soft-light; opacity: .31;">
                <path d="M1771.1,96.82v165.81c0,3.74-.17,7.44-.5,11.1v.05c-2.65,29.37-15.67,55.75-35.37,75.45-22.16,22.16-52.78,35.87-86.61,35.87h-.42c-12.06-.04-23.72-1.83-34.71-5.12-27.08-8.11-44.81-23.88-53.62-33,12.86,3.96,86.44,25.41,136.16-16.35,12.15-10.2,19.08-20.99,22.98-27.17,18.6-29.47,21.16-59.23,19.17-135.51-.54-20.61-1.39-43.87-2.74-69.44-.02-.55-.05-1.1-.08-1.66-.02-.35-.04-.71-.06-1.07,11.59.33,23.18.67,34.79,1.01.33,0,.67.02,1.01.03Z"/>
              </g>
              <g style="mix-blend-mode: soft-light; opacity: .31;">
                <path d="M1998.25,324.57c-.41.7-.83,1.4-1.26,2.1-.41.67-.83,1.34-1.26,2-.6.93-1.21,1.85-1.83,2.76-1.85,2.73-3.82,5.39-5.9,7.96,0,0-.02.03-.04.05-.61.76-1.23,1.51-1.86,2.25-.48.57-.97,1.14-1.47,1.7-.2.25-.42.49-.64.73-.56.63-1.13,1.26-1.72,1.88-1,1.1-2.04,2.17-3.1,3.23-22.16,22.17-52.78,35.88-86.6,35.88-2.83,0-5.64-.1-8.43-.29-.33-.02-.66-.04-.99-.07-.67-.05-1.35-.11-2.02-.17-.6-.05-1.2-.11-1.79-.18-.28-.03-.55-.06-.83-.09-1.03-.12-2.05-.25-3.07-.39-.35-.05-.7-.1-1.05-.15-1.4-.21-2.79-.44-4.17-.7-.73-.13-1.45-.27-2.17-.42-.05,0-.11-.02-.16-.03-.67-.14-1.33-.28-1.99-.43-1.43-.32-2.86-.66-4.27-1.03-.7-.19-1.41-.38-2.11-.57-.7-.2-1.39-.4-2.09-.61-.13-.04-.26-.08-.38-.12s-.25-.08-.37-.12c-1.24-.37-2.44-.76-3.63-1.18-.33-.1-.65-.22-.97-.33-1.41-.48-2.78-1-4.13-1.53-.87-.34-1.73-.69-2.58-1.05-.73-.31-1.45-.62-2.17-.93-.01,0-.03-.02-.05-.02-.6-.27-1.19-.54-1.78-.81-.58-.27-1.16-.55-1.74-.82-.6-.29-1.19-.58-1.77-.87-16.28-8.22-27.57-18.51-34.04-25.22,12.86,3.96,86.43,25.42,136.16-16.34,12.15-10.21,19.08-21,22.98-27.18,18.6-29.47,21.16-59.23,19.17-135.51-.47-18.03-1.18-38.08-2.26-59.93-.05-1.1-.1-2.22-.16-3.33,3.29,1.55,5.58,4.98,5.58,8.83h.01c5.66,69.53,9.95,139.9,12.95,211.05Z"/>
              </g>
            </g>
            <g style="mix-blend-mode: soft-light; opacity: .31;">
              <path d="M1035.76,62.72h1.73c-1.13,0-1.73,0-1.73,0Z"/>
            </g>
          </g>
          <g>
            <path d="M599.51,140.91c-2.01,17.34-3.75,25.45-9.8,34.89-2.59,4.05-8.49,3.95-10.94-.18-7.38-12.47-10.17-28.05-5.04-41.72v.02c1.3-3.43,3.15-6.68,5.44-9.55,2.63-3.31,5.87-6.14,9.58-8.22,6.55-3.97,9.72.32,10.86,7.54.77,4.94.6,11.25-.1,17.22Z" style="fill: #fff;"/>
            <path d="M582.23,194.77c-.08,5.12.78,10.23,2.54,15.03.54,1.47,1.47,3.16,3.04,3.24,1.88.09,2.93-2.12,3.32-3.95,1.31-6.21.86-12.83-1.27-18.8-.8-2.26-2.02-4.53-4.8-3.31s-2.79,5.23-2.83,7.79h0Z" style="fill: #fff;"/>
          </g>
          <g>
            <path d="M829.85,141.61c-5.12,13.67-2.34,29.25,5.05,41.71,2.45,4.14,8.34,4.23,10.94.18,6.05-9.44,7.79-17.55,9.8-34.89,1.72-14.72.27-31.45-10.76-24.76-6.93,3.87-12.21,10.38-15.02,17.76h0Z" style="fill: #fff;"/>
            <path d="M838.35,202.48c-.08,5.12.78,10.23,2.54,15.03.54,1.47,1.47,3.16,3.04,3.24,1.88.09,2.93-2.12,3.32-3.95,1.31-6.21.86-12.83-1.27-18.8-.8-2.26-2.02-4.53-4.8-3.31s-2.79,5.23-2.83,7.79h0Z" style="fill: #fff;"/>
          </g>
          <g>
            <path d="M1072.58,141.61c-5.12,13.67-2.34,29.25,5.05,41.71,2.45,4.14,8.34,4.23,10.94.18,6.05-9.44,7.79-17.55,9.8-34.89,1.72-14.72.27-31.45-10.76-24.76-6.93,3.87-12.21,10.38-15.02,17.76h0Z" style="fill: #fff;"/>
            <path d="M1081.08,202.48c-.08,5.12.78,10.23,2.54,15.03.54,1.47,1.47,3.16,3.04,3.24,1.88.09,2.93-2.12,3.32-3.95,1.31-6.21.86-12.83-1.27-18.8-.8-2.26-2.02-4.53-4.8-3.31s-2.79,5.23-2.83,7.79h0Z" style="fill: #fff;"/>
          </g>
          <g>
            <path d="M1315.3,141.61c-5.12,13.67-2.34,29.25,5.05,41.71,2.45,4.14,8.34,4.23,10.94.18,6.05-9.44,7.79-17.55,9.8-34.89,1.72-14.72.27-31.45-10.76-24.76-6.93,3.87-12.21,10.38-15.02,17.76h0Z" style="fill: #fff;"/>
            <path d="M1323.8,202.48c-.08,5.12.78,10.23,2.54,15.03.54,1.47,1.47,3.16,3.04,3.24,1.88.09,2.93-2.12,3.32-3.95,1.31-6.21.86-12.83-1.27-18.8-.8-2.26-2.02-4.53-4.8-3.31s-2.79,5.23-2.83,7.79h0Z" style="fill: #fff;"/>
          </g>
          <g>
            <path d="M1558.02,141.61c-5.12,13.67-2.34,29.25,5.05,41.71,2.45,4.14,8.34,4.23,10.94.18,6.05-9.44,7.79-17.55,9.8-34.89,1.72-14.72.27-31.45-10.76-24.76-6.93,3.87-12.21,10.38-15.02,17.76h0Z" style="fill: #fff;"/>
            <path d="M1566.52,202.48c-.08,5.12.78,10.23,2.54,15.03.54,1.47,1.47,3.16,3.04,3.24,1.88.09,2.93-2.12,3.32-3.95,1.31-6.21.86-12.83-1.27-18.8-.8-2.26-2.02-4.53-4.8-3.31s-2.79,5.23-2.83,7.79h0Z" style="fill: #fff;"/>
          </g>
          <g>
            <path d="M1826.52,148.62c-2.01,17.34-3.75,25.45-9.8,34.89-2.59,4.04-8.49,3.95-10.94-.19-7.38-12.46-10.17-28.04-5.04-41.71,2.28-5.96,6.16-11.36,11.23-15.26,1.2-.92,2.46-1.75,3.79-2.49,4.98-3.02,8.01-1.27,9.67,2.92,2.02,5.09,2.03,13.77,1.09,21.84Z" style="fill: #fff;"/>
            <path d="M1809.24,202.48c-.08,5.12.78,10.23,2.54,15.03.54,1.47,1.47,3.16,3.04,3.24,1.88.09,2.93-2.12,3.32-3.95,1.31-6.21.86-12.83-1.27-18.8-.8-2.26-2.02-4.53-4.8-3.31s-2.79,5.23-2.83,7.79h0Z" style="fill: #fff;"/>
          </g>
        </g>
        <g>
          <g>
            <g>
              <path d="M1896.43,1033.44v33.1c0,8.06-6.54,14.6-14.6,14.6h-101.71c-2.48,0-4.82-.62-6.87-1.72-.75-.4-1.46-.87-2.13-1.4-3.41-2.66-5.6-6.82-5.6-11.48v-33.1c0-8.07,6.54-14.6,14.6-14.6h101.71c3.81,0,7.29,1.46,9.88,3.86,2.9,2.66,4.72,6.49,4.72,10.74Z" style="fill: #feb13d;"/>
              <path d="M1881.83,1082.64h-101.71c-2.64,0-5.27-.66-7.58-1.9-.8-.43-1.6-.95-2.35-1.54-3.92-3.06-6.17-7.67-6.17-12.66v-33.1c0-8.88,7.22-16.1,16.1-16.1h101.71c4.06,0,7.94,1.51,10.9,4.26,3.3,3.03,5.2,7.35,5.2,11.84v33.1c0,8.88-7.22,16.1-16.1,16.1ZM1780.12,1020.34c-7.22,0-13.1,5.88-13.1,13.1v33.1c0,4.05,1.83,7.81,5.02,10.3.62.49,1.26.91,1.91,1.26,1.88,1.01,4.01,1.54,6.17,1.54h101.71c7.22,0,13.1-5.88,13.1-13.1v-33.1c0-3.66-1.54-7.17-4.23-9.63-2.41-2.24-5.56-3.47-8.87-3.47h-101.71Z" style="fill: #192e58;"/>
            </g>
            <g>
              <path d="M1784.55,1067.43v-34.14h14.91c3.58,0,6.36.78,8.33,2.35s2.95,3.74,2.95,6.51c0,2.07-.6,3.81-1.79,5.23-1.19,1.42-2.82,2.37-4.89,2.86v-.73c1.58.23,2.94.71,4.07,1.45,1.13.74,1.99,1.7,2.59,2.86.6,1.16.9,2.52.9,4.07,0,2-.46,3.72-1.38,5.16s-2.25,2.53-3.99,3.27-3.83,1.11-6.25,1.11h-15.45ZM1790.51,1047.77h7.89c2.13,0,3.72-.41,4.77-1.24,1.05-.82,1.57-2.04,1.57-3.66s-.53-2.83-1.57-3.66c-1.05-.82-2.64-1.24-4.77-1.24h-7.89v9.78ZM1790.51,1062.73h8.71c.87,0,1.65-.06,2.35-.19.69-.13,1.29-.33,1.79-.61.5-.27.92-.62,1.26-1.04.34-.42.59-.9.75-1.45.16-.55.24-1.16.24-1.84s-.08-1.34-.24-1.89c-.16-.55-.41-1.02-.75-1.43s-.76-.74-1.26-1.02c-.5-.27-1.1-.48-1.79-.6s-1.48-.19-2.35-.19h-8.71v10.27Z" style="fill: #192e58;"/>
              <path d="M1832.05,1067.91c-4.68,0-8.25-1.22-10.72-3.66-2.47-2.44-3.7-6.04-3.7-10.82v-20.14h6.2v20.09c0,3.07.7,5.37,2.11,6.9s3.45,2.3,6.12,2.3,4.71-.77,6.1-2.3c1.39-1.53,2.08-3.83,2.08-6.9v-20.09h6.15v20.14c0,4.78-1.21,8.38-3.63,10.82-2.42,2.44-5.99,3.66-10.7,3.66Z" style="fill: #192e58;"/>
              <path d="M1861.73,1067.43v-17.58l1.31,3.73-14.43-20.29h7.21l9.78,13.9h-1.36l9.83-13.9h6.92l-14.33,20.29,1.26-3.73v17.58h-6.2Z" style="fill: #192e58;"/>
            </g>
          </g>
          <path d="M1780.6,1025.7c-10.58-1.73-9.2,4.95-9.03,7.81,0,.39.53.5.69.15,1.61-3.56,4.43-5.98,8.45-7.25.39-.12.31-.7-.1-.7h0Z" style="fill: #fff;"/>
        </g>
        <g style="mix-blend-mode: soft-light; opacity: .31;">
          <path d="M1771.12,1078.02l106.1-4.53c6.01-.25,10.89-4.95,11.36-10.95l3.13-39.84c2.9,2.66,4.72,6.49,4.72,10.74v33.1c0,8.06-6.54,14.6-14.6,14.6h-89.93l-18.65-1.72-2.13-1.4Z"/>
        </g>
        <g>
          <g>
            <rect x="1248.69" y="453.35" width="472.82" height="53.38" rx="14.87" ry="14.87" style="fill: #51b5f2;"/>
            <path d="M1706.64,508.23h-443.08c-9.03,0-16.37-7.34-16.37-16.37v-23.64c0-9.03,7.34-16.37,16.37-16.37h443.08c9.03,0,16.37,7.34,16.37,16.37v23.64c0,9.03-7.34,16.37-16.37,16.37ZM1263.55,454.85c-7.37,0-13.37,6-13.37,13.37v23.64c0,7.37,6,13.37,13.37,13.37h443.08c7.37,0,13.37-6,13.37-13.37v-23.64c0-7.37-6-13.37-13.37-13.37h-443.08Z" style="fill: #192e58;"/>
          </g>
          <g>
            <rect x="1774.02" y="453.35" width="112.17" height="53.38" rx="14.87" ry="14.87" style="fill: #51b5f2;"/>
            <path d="M1871.32,508.23h-82.43c-9.03,0-16.37-7.34-16.37-16.37v-23.64c0-9.03,7.34-16.37,16.37-16.37h82.43c9.03,0,16.37,7.34,16.37,16.37v23.64c0,9.03-7.34,16.37-16.37,16.37ZM1788.89,454.85c-7.37,0-13.37,6-13.37,13.37v23.64c0,7.37,6,13.37,13.37,13.37h82.43c7.37,0,13.37-6,13.37-13.37v-23.64c0-7.37-6-13.37-13.37-13.37h-82.43Z" style="fill: #192e58;"/>
          </g>
          <g style="mix-blend-mode: multiply; opacity: .15;">
            <path d="M1875.32,453.72c.68,1.71,1.07,3.57,1.07,5.52v23.64c0,8.21-6.66,14.87-14.87,14.87h-82.43c-1.79,0-3.5-.33-5.09-.91,2.19,5.48,7.54,9.35,13.8,9.35h82.43c8.21,0,14.87-6.66,14.87-14.87v-23.64c0-6.42-4.08-11.88-9.78-13.96Z" style="fill: #304df2;"/>
          </g>
          <g>
            <rect x="1248.69" y="543.32" width="260.21" height="53.38" rx="14.87" ry="14.87" style="fill: #51b5f2;"/>
            <path d="M1494.03,598.21h-230.47c-9.03,0-16.37-7.34-16.37-16.37v-23.64c0-9.03,7.34-16.37,16.37-16.37h230.47c9.03,0,16.37,7.34,16.37,16.37v23.64c0,9.03-7.34,16.37-16.37,16.37ZM1263.55,544.82c-7.37,0-13.37,6-13.37,13.37v23.64c0,7.37,6,13.37,13.37,13.37h230.47c7.37,0,13.37-6,13.37-13.37v-23.64c0-7.37-6-13.37-13.37-13.37h-230.47Z" style="fill: #192e58;"/>
          </g>
          <g style="mix-blend-mode: multiply; opacity: .15;">
            <path d="M1496.83,543.71c.32,1.21.5,2.47.5,3.78v23.64c0,8.21-6.66,14.87-14.87,14.87h-230.47c-1.31,0-2.57-.19-3.78-.5,1.67,6.38,7.46,11.09,14.37,11.09h230.47c8.21,0,14.87-6.66,14.87-14.87v-23.64c0-6.9-4.71-12.69-11.09-14.37Z" style="fill: #304df2;"/>
          </g>
          <g>
            <g>
              <rect x="1248.69" y="663.94" width="472.82" height="53.38" rx="14.87" ry="14.87" style="fill: #51b5f2;"/>
              <path d="M1706.64,718.82h-443.08c-9.03,0-16.37-7.34-16.37-16.37v-23.64c0-9.03,7.34-16.37,16.37-16.37h443.08c9.03,0,16.37,7.34,16.37,16.37v23.64c0,9.03-7.34,16.37-16.37,16.37ZM1263.55,665.44c-7.37,0-13.37,6-13.37,13.37v23.64c0,7.37,6,13.37,13.37,13.37h443.08c7.37,0,13.37-6,13.37-13.37v-23.64c0-7.37-6-13.37-13.37-13.37h-443.08Z" style="fill: #192e58;"/>
            </g>
            <g>
              <rect x="1774.02" y="663.94" width="112.17" height="53.38" rx="14.87" ry="14.87" style="fill: #51b5f2;"/>
              <path d="M1871.32,718.82h-82.43c-9.03,0-16.37-7.34-16.37-16.37v-23.64c0-9.03,7.34-16.37,16.37-16.37h82.43c9.03,0,16.37,7.34,16.37,16.37v23.64c0,9.03-7.34,16.37-16.37,16.37ZM1788.89,665.44c-7.37,0-13.37,6-13.37,13.37v23.64c0,7.37,6,13.37,13.37,13.37h82.43c7.37,0,13.37-6,13.37-13.37v-23.64c0-7.37-6-13.37-13.37-13.37h-82.43Z" style="fill: #192e58;"/>
            </g>
            <g>
              <rect x="1248.69" y="753.91" width="260.21" height="53.38" rx="14.87" ry="14.87" style="fill: #51b5f2;"/>
              <path d="M1494.03,808.79h-230.47c-9.03,0-16.37-7.34-16.37-16.37v-23.64c0-9.03,7.34-16.37,16.37-16.37h230.47c9.03,0,16.37,7.34,16.37,16.37v23.64c0,9.03-7.34,16.37-16.37,16.37ZM1263.55,755.41c-7.37,0-13.37,6-13.37,13.37v23.64c0,7.37,6,13.37,13.37,13.37h230.47c7.37,0,13.37-6,13.37-13.37v-23.64c0-7.37-6-13.37-13.37-13.37h-230.47Z" style="fill: #192e58;"/>
            </g>
          </g>
          <g>
            <rect x="1248.69" y="866.94" width="472.82" height="53.38" rx="14.87" ry="14.87" style="fill: #51b5f2;"/>
            <path d="M1706.64,921.82h-443.08c-9.03,0-16.37-7.34-16.37-16.37v-23.64c0-9.03,7.34-16.37,16.37-16.37h443.08c9.03,0,16.37,7.34,16.37,16.37v23.64c0,9.03-7.34,16.37-16.37,16.37ZM1263.55,868.44c-7.37,0-13.37,6-13.37,13.37v23.64c0,7.37,6,13.37,13.37,13.37h443.08c7.37,0,13.37-6,13.37-13.37v-23.64c0-7.37-6-13.37-13.37-13.37h-443.08Z" style="fill: #192e58;"/>
          </g>
          <g>
            <rect x="1774.02" y="866.94" width="112.17" height="53.38" rx="14.87" ry="14.87" style="fill: #51b5f2;"/>
            <path d="M1871.32,921.82h-82.43c-9.03,0-16.37-7.34-16.37-16.37v-23.64c0-9.03,7.34-16.37,16.37-16.37h82.43c9.03,0,16.37,7.34,16.37,16.37v23.64c0,9.03-7.34,16.37-16.37,16.37ZM1788.89,868.44c-7.37,0-13.37,6-13.37,13.37v23.64c0,7.37,6,13.37,13.37,13.37h82.43c7.37,0,13.37-6,13.37-13.37v-23.64c0-7.37-6-13.37-13.37-13.37h-82.43Z" style="fill: #192e58;"/>
          </g>
          <g>
            <rect x="1248.69" y="956.92" width="260.21" height="53.38" rx="14.87" ry="14.87" style="fill: #51b5f2;"/>
            <path d="M1494.03,1011.8h-230.47c-9.03,0-16.37-7.34-16.37-16.37v-23.64c0-9.03,7.34-16.37,16.37-16.37h230.47c9.03,0,16.37,7.34,16.37,16.37v23.64c0,9.03-7.34,16.37-16.37,16.37ZM1263.55,958.42c-7.37,0-13.37,6-13.37,13.37v23.64c0,7.37,6,13.37,13.37,13.37h230.47c7.37,0,13.37-6,13.37-13.37v-23.64c0-7.37-6-13.37-13.37-13.37h-230.47Z" style="fill: #192e58;"/>
          </g>
          <g style="mix-blend-mode: multiply; opacity: .15;">
            <path d="M1705.42,453.39h-2.47c.02.35.05.69.05,1.04v23.64c0,8.21-6.66,14.87-14.87,14.87h-440.61c.54,7.72,6.96,13.83,14.82,13.83h443.08c8.21,0,14.87-6.66,14.87-14.87v-23.64c0-8.21-6.66-14.87-14.87-14.87Z" style="fill: #304df2;"/>
          </g>
          <g style="mix-blend-mode: multiply; opacity: .15;">
            <path d="M1705.42,664.18h-2.47c.02.35.05.69.05,1.04v23.64c0,8.21-6.66,14.87-14.87,14.87h-440.61c.54,7.72,6.96,13.83,14.82,13.83h443.08c8.21,0,14.87-6.66,14.87-14.87v-23.64c0-8.21-6.66-14.87-14.87-14.87Z" style="fill: #304df2;"/>
          </g>
          <g style="mix-blend-mode: multiply; opacity: .15;">
            <path d="M1705.42,867.48h-2.47c.02.35.05.69.05,1.04v23.64c0,8.21-6.66,14.87-14.87,14.87h-440.61c.54,7.72,6.96,13.83,14.82,13.83h443.08c8.21,0,14.87-6.66,14.87-14.87v-23.64c0-8.21-6.66-14.87-14.87-14.87Z" style="fill: #304df2;"/>
          </g>
          <g style="mix-blend-mode: multiply; opacity: .15;">
            <path d="M1497.27,753.95c.32,1.21.5,2.47.5,3.78v23.64c0,8.21-6.66,14.87-14.87,14.87h-230.47c-1.31,0-2.57-.19-3.78-.5,1.67,6.38,7.46,11.09,14.37,11.09h230.47c8.21,0,14.87-6.66,14.87-14.87v-23.64c0-6.9-4.71-12.69-11.09-14.37Z" style="fill: #304df2;"/>
          </g>
          <g style="mix-blend-mode: multiply; opacity: .15;">
            <path d="M1498.45,957.18c.32,1.21.5,2.47.5,3.78v23.64c0,8.21-6.66,14.87-14.87,14.87h-230.47c-1.31,0-2.57-.19-3.78-.5,1.67,6.38,7.46,11.09,14.37,11.09h230.47c8.21,0,14.87-6.66,14.87-14.87v-23.64c0-6.9-4.71-12.69-11.09-14.37Z" style="fill: #304df2;"/>
          </g>
          <g style="mix-blend-mode: multiply; opacity: .15;">
            <path d="M1876.28,663.4c.68,1.71,1.07,3.57,1.07,5.52v23.64c0,8.21-6.66,14.87-14.87,14.87h-82.43c-1.79,0-3.5-.33-5.09-.91,2.19,5.48,7.54,9.35,13.8,9.35h82.43c8.21,0,14.87-6.66,14.87-14.87v-23.64c0-6.42-4.08-11.88-9.78-13.96Z" style="fill: #304df2;"/>
          </g>
          <g style="mix-blend-mode: multiply; opacity: .15;">
            <path d="M1876.28,866.54c.68,1.71,1.07,3.57,1.07,5.52v23.64c0,8.21-6.66,14.87-14.87,14.87h-82.43c-1.79,0-3.5-.33-5.09-.91,2.19,5.48,7.54,9.35,13.8,9.35h82.43c8.21,0,14.87-6.66,14.87-14.87v-23.64c0-6.42-4.08-11.88-9.78-13.96Z" style="fill: #304df2;"/>
          </g>
        </g>
      </g>
    </g>
  </g>
</svg>