<?xml version="1.0" encoding="UTF-8"?>
<svg xmlns="http://www.w3.org/2000/svg" viewBox="0 0 1028.3 964.34">
  <g style="isolation: isolate;">
    <g id="Layer_1" data-name="Layer 1">
      <g>
        <g>
          <path d="M250.67,264.45l-68.17-22.11-3.49-12.81-45.51-167.05H32.49c-16.57,0-29.97-13.41-29.97-29.98S15.92,2.52,32.49,2.52h123.91c6.45,0,12.51,2.06,17.47,5.63,5.46,3.91,9.58,9.64,11.45,16.47l65.34,239.83Z" style="fill: #51b5f2;"/>
          <path d="M254.32,268.29l-73.89-23.97-48.84-179.32H32.49C14.57,65,0,50.42,0,32.5S14.57,0,32.49,0h123.91c6.85,0,13.4,2.11,18.94,6.11,6.03,4.32,10.44,10.66,12.41,17.85l66.57,244.33ZM184.57,240.36l62.44,20.25L182.89,25.29c-1.66-6.08-5.39-11.43-10.49-15.08-4.69-3.38-10.22-5.16-16-5.16H32.49c-15.14,0-27.45,12.32-27.45,27.46s12.32,27.46,27.45,27.46h102.94l49.14,180.4Z" style="fill: #192e58;"/>
        </g>
        <g>
          <path d="M24.67,18.26c13.32-6.25,30.25-7.47,44.66-5.08,3.75.65,7.47,1.52,11.03,2.85,1.19.44,2.37.89,3.54,1.37.87.37,1.28,1.37.91,2.24-.31.73-1.05,1.12-1.79,1.04-1.83-.11-3.62-.29-5.43-.5-1.75-.11-3.65-.24-5.38-.4-1.29-.06-4.12-.17-5.36-.26-1.12,0-4.19-.07-5.36-.1-8.35-.01-16.68.48-25.03,1.17-3.5.28-7.44.66-10.91.92-1.86.13-2.57-2.42-.89-3.26h0Z" style="fill: #fff;"/>
          <path d="M20.4,21.74c1.08-.82.25-2.1-.08-2.26-.7-.33-1.51-.41-2.26-.22-.47.12-.92.35-1.23.72s-.47.88-.35,1.34c.51,1.91,3.04,1.08,3.91.42h0Z" style="fill: #fff;"/>
        </g>
        <g style="mix-blend-mode: multiply; opacity: .32;">
          <path d="M250.67,264.45l-68.17-22.11-3.49-12.81c.54-1.7,1.07-3.42,1.58-5.16,25.94-87.38,9.43-167.17-6.72-216.22,5.46,3.91,9.58,9.64,11.45,16.47l65.34,239.83Z" style="fill: #51b5f2;"/>
        </g>
        <g>
          <path d="M666.03,152.41v119.92c0,16.57-13.4,29.97-29.98,29.97h-299.78c-16.57,0-29.98-13.4-29.98-29.97v-119.92c0-16.57,13.41-29.98,29.98-29.98h299.78c1.42,0,2.82.1,4.18.29,14.59,2.03,25.8,14.54,25.8,29.69Z" style="fill: #feb13d;"/>
          <path d="M636.05,304.82h-299.78c-17.92,0-32.5-14.57-32.5-32.49v-119.92c0-17.92,14.58-32.5,32.5-32.5h299.78c1.53,0,3.06.11,4.53.31,15.94,2.21,27.96,16.05,27.96,32.18v119.92c0,17.92-14.58,32.49-32.5,32.49ZM336.27,124.95c-15.14,0-27.46,12.32-27.46,27.46v119.92c0,15.14,12.32,27.45,27.46,27.45h299.78c15.14,0,27.46-12.32,27.46-27.45v-119.92c0-13.63-10.16-25.33-23.63-27.19-1.25-.18-2.54-.27-3.83-.27h-299.78Z" style="fill: #192e58;"/>
        </g>
        <path d="M374.07,135.44c-62.4-10.22-54.26,29.17-53.24,46.03,0,2.28,3.1,2.96,4.05.89,9.51-21.01,26.12-35.27,49.81-42.77,2.33-.74,1.82-4.15-.62-4.15h0Z" style="fill: #fff;"/>
        <g style="mix-blend-mode: multiply; opacity: .37;">
          <path d="M666.03,272.33l-211.26,29.97-10.97,1.56.85-1.56c52.31-12.69,93.16-49.64,105.46-96.98,9.8-37.72-1.68-69.97-7.16-82.89h93.11c1.42,0,2.82.1,4.18.29l25.8,149.61Z" style="fill: #feb13d;"/>
        </g>
        <g>
          <path d="M837.12,11.3c-11.71-11.71-30.68-11.71-42.39,0l-38.76,38.76-38.76-38.76c-11.71-11.71-30.68-11.71-42.39,0-11.71,11.71-11.71,30.68,0,42.39l59.96,59.96c5.86,5.86,13.53,8.78,21.19,8.78s15.34-2.93,21.19-8.78l59.96-59.96c11.72-11.71,11.72-30.68,0-42.39h0Z" style="fill: #fe77b8;"/>
          <path d="M755.96,124.95c-8.68,0-16.84-3.38-22.98-9.52l-59.96-59.96c-6.14-6.14-9.52-14.3-9.52-22.98s3.38-16.84,9.52-22.98C679.17,3.38,687.33,0,696.01,0s16.84,3.38,22.98,9.52l36.98,36.98,36.98-36.98C799.08,3.38,807.25,0,815.92,0s16.84,3.38,22.98,9.52h0c6.14,6.14,9.52,14.3,9.52,22.98,0,8.68-3.38,16.84-9.53,22.98l-59.96,59.96c-6.14,6.14-14.3,9.52-22.98,9.52ZM696.01,5.04c-7.33,0-14.23,2.86-19.42,8.04-5.19,5.19-8.04,12.08-8.04,19.41s2.86,14.23,8.04,19.42l59.96,59.96c5.19,5.19,12.08,8.05,19.41,8.05s14.23-2.86,19.41-8.05l59.96-59.96c5.19-5.19,8.05-12.08,8.05-19.42,0-7.33-2.86-14.23-8.04-19.41h0c-5.19-5.19-12.08-8.04-19.42-8.04s-14.23,2.86-19.41,8.04l-40.54,40.54-40.54-40.54c-5.19-5.19-12.08-8.04-19.42-8.04Z" style="fill: #192e58;"/>
        </g>
        <g>
          <path d="M777.16,113.65l59.96-59.96c11.71-11.71,11.71-30.68,0-42.39-11.71-11.71-30.68-11.71-42.39,0l-38.76,38.76v72.37c7.67,0,15.34-2.93,21.2-8.78Z" style="fill: #fe77b8;"/>
          <path d="M755.96,124.95h-2.52V49.02l39.5-39.5C799.08,3.38,807.25,0,815.92,0s16.84,3.38,22.98,9.52c6.14,6.14,9.52,14.3,9.52,22.98s-3.38,16.84-9.52,22.98l-59.96,59.96c-6.14,6.14-14.3,9.52-22.98,9.52ZM758.48,51.11v68.7c6.38-.58,12.31-3.34,16.9-7.93h0s59.96-59.96,59.96-59.96c5.19-5.19,8.04-12.08,8.04-19.42s-2.86-14.23-8.04-19.41c-5.19-5.19-12.08-8.04-19.41-8.04s-14.23,2.86-19.42,8.04l-38.02,38.02Z" style="fill: #192e58;"/>
        </g>
        <g>
          <path d="M905.86,92.45v179.88c0,16.57-13.4,29.97-29.98,29.97h-239.83c-16.57,0-29.97-13.4-29.97-29.97V92.45c0-16.57,13.4-29.97,29.97-29.97h239.83c16.58,0,29.98,13.4,29.98,29.97Z" style="fill: #83d689;"/>
          <path d="M875.88,304.82h-239.83c-17.92,0-32.49-14.57-32.49-32.49V92.45c0-17.92,14.58-32.49,32.49-32.49h239.83c17.92,0,32.5,14.58,32.5,32.49v179.88c0,17.92-14.58,32.49-32.5,32.49ZM636.05,65c-15.14,0-27.45,12.32-27.45,27.45v179.88c0,15.14,12.32,27.45,27.45,27.45h239.83c15.14,0,27.46-12.32,27.46-27.45V92.45c0-15.14-12.32-27.45-27.46-27.45h-239.83Z" style="fill: #192e58;"/>
        </g>
        <g>
          <ellipse cx="682.82" cy="26.37" rx="7.88" ry="4.64" transform="translate(497.01 683.95) rotate(-76.43)" style="fill: #fff;"/>
          <ellipse cx="681.95" cy="41.39" rx="2.29" ry="4.02" transform="translate(5.7 138.6) rotate(-11.65)" style="fill: #fff;"/>
        </g>
        <path d="M677.79,78.29c-62.4-10.22-54.26,29.17-53.24,46.03,0,2.28,3.1,2.96,4.05.89,9.51-21.01,26.12-35.27,49.81-42.77,2.33-.74,1.82-4.15-.62-4.15h0Z" style="fill: #fff;"/>
        <g style="mix-blend-mode: multiply; opacity: .37;">
          <path d="M905.86,92.45v168.01l-299.78-11.27-18.37-.69,18.37-3.9,189.84-40.33c35.39-7.52,62.36-36.27,67.6-72.06l10.22-69.73h2.13c16.58,0,29.98,13.4,29.98,29.97Z" style="fill: #83d689;"/>
        </g>
        <g>
          <path d="M815.92,781.96h-479.65c-16.51,0-29.98-13.44-29.98-29.98,0-15.49,11.59-28.31,26.93-29.83,16.45-1.64,28.52-16.34,26.82-32.82-1.58-16.45-16.34-27.9-32.79-26.85-46.14,4.6-80.92,43.06-80.92,89.5,0,49.59,40.34,89.94,89.94,89.94h479.65c16.57,0,29.98-13.41,29.98-29.98s-13.41-29.98-29.98-29.98Z" style="fill: #51b5f2;"/>
          <path d="M815.93,844.43h-479.65c-50.98,0-92.45-41.47-92.45-92.45,0-47.72,35.76-87.28,83.19-92,18.28-1.2,33.86,11.62,35.54,29.11.89,8.6-1.65,17.05-7.13,23.78-5.5,6.74-13.29,10.93-21.94,11.79-14.06,1.4-24.67,13.14-24.67,27.33,0,15.14,12.32,27.46,27.46,27.46h479.65c17.92,0,32.5,14.58,32.5,32.49s-14.58,32.5-32.5,32.5ZM329.38,664.93c-.65,0-1.31.02-1.97.06-44.75,4.46-78.56,41.86-78.56,86.98,0,48.2,39.21,87.42,87.42,87.42h479.65c15.14,0,27.46-12.32,27.46-27.46s-12.32-27.46-27.46-27.46h-479.65c-17.92,0-32.5-14.58-32.5-32.5,0-16.78,12.56-30.69,29.2-32.34,7.31-.73,13.89-4.27,18.54-9.96,4.63-5.68,6.77-12.81,6.02-20.09-1.36-14.16-13.54-24.65-28.16-24.65Z" style="fill: #192e58;"/>
        </g>
        <g>
          <path d="M1025.36,277.24l-59.96,359.74c-2.22,13.38-13.11,23.57-26.64,24.92-325.58,32.21-476.24,47.26-545.43,54.17-76.73,7.67-53.28,5.34-57.06,5.34-13.41,0-25.36-8.93-28.92-22.08l-124.88-456.99h813.33c8.78,0,17.16,3.87,22.89,10.6,5.68,6.73,8.13,15.61,6.67,24.3Z" style="fill: #fa7532;"/>
          <path d="M336.1,724.22c-.64,0-1.27-.08-1.77-.35-13.82-.83-25.75-10.41-29.4-23.88l-125.75-460.16h816.63c9.55,0,18.59,4.18,24.81,11.48,6.19,7.33,8.82,16.93,7.24,26.35l-59.96,359.74c-2.4,14.45-14.27,25.56-28.87,27.01-307.57,30.43-458.59,45.49-545.43,54.17l-10.39,1.04c-20.59,2.06-32.4,3.24-39.06,3.89-3.34.33-5.4.52-6.61.63-.46.04-.94.08-1.42.08ZM185.77,244.87l124.01,453.8c3.23,11.91,14.12,20.22,26.49,20.22.5,0,.91.07,1.25.19,4.15-.38,16.2-1.58,45.16-4.48l10.39-1.04c86.84-8.68,237.87-23.74,545.44-54.17,12.34-1.23,22.38-10.62,24.4-22.83l59.96-359.74c1.34-7.96-.89-16.07-6.11-22.26-5.25-6.16-12.9-9.7-20.97-9.7H185.77Z" style="fill: #192e58;"/>
        </g>
        <g>
          <g>
            <path d="M815.92,961.83c-49.59,0-89.94-40.34-89.94-89.94s40.34-89.94,89.94-89.94,89.94,40.34,89.94,89.94-40.34,89.94-89.94,89.94Z" style="fill: #192e58;"/>
            <path d="M815.92,964.34c-50.98,0-92.45-41.47-92.45-92.45s41.47-92.45,92.45-92.45,92.45,41.47,92.45,92.45-41.47,92.45-92.45,92.45ZM815.92,784.47c-48.2,0-87.42,39.21-87.42,87.42s39.21,87.42,87.42,87.42,87.42-39.21,87.42-87.42-39.21-87.42-87.42-87.42Z" style="fill: #192e58;"/>
          </g>
          <g>
            <circle cx="815.92" cy="871.89" r="29.98" style="fill: #d9e5ff;"/>
            <path d="M815.92,904.39c-17.92,0-32.5-14.58-32.5-32.5s14.58-32.5,32.5-32.5,32.5,14.58,32.5,32.5-14.58,32.5-32.5,32.5ZM815.92,844.43c-15.14,0-27.46,12.32-27.46,27.46s12.32,27.46,27.46,27.46,27.46-12.32,27.46-27.46-12.32-27.46-27.46-27.46Z" style="fill: #192e58;"/>
          </g>
        </g>
        <g>
          <g>
            <path d="M396.23,961.83c-49.59,0-89.94-40.34-89.94-89.94s40.34-89.94,89.94-89.94,89.94,40.34,89.94,89.94-40.34,89.94-89.94,89.94Z" style="fill: #192e58;"/>
            <path d="M396.23,964.34c-50.98,0-92.45-41.47-92.45-92.45s41.47-92.45,92.45-92.45,92.45,41.47,92.45,92.45-41.47,92.45-92.45,92.45ZM396.23,784.47c-48.2,0-87.42,39.21-87.42,87.42s39.21,87.42,87.42,87.42,87.42-39.21,87.42-87.42-39.21-87.42-87.42-87.42Z" style="fill: #192e58;"/>
          </g>
          <g>
            <circle cx="396.23" cy="871.89" r="29.98" style="fill: #ecf2ff;"/>
            <path d="M396.23,904.39c-17.92,0-32.5-14.58-32.5-32.5s14.58-32.5,32.5-32.5,32.5,14.58,32.5,32.5-14.58,32.5-32.5,32.5ZM396.23,844.43c-15.14,0-27.46,12.32-27.46,27.46s12.32,27.46,27.46,27.46,27.46-12.32,27.46-27.46-12.32-27.46-27.46-27.46Z" style="fill: #192e58;"/>
          </g>
        </g>
        <g>
          <path d="M815.92,542.13c-16.57,0-29.98-13.41-29.98-29.98v-119.91c0-16.57,13.41-29.98,29.98-29.98s29.98,13.41,29.98,29.98v119.91c0,16.57-13.41,29.98-29.98,29.98Z" style="fill: #d9e5ff;"/>
          <path d="M815.92,544.65c-17.92,0-32.5-14.58-32.5-32.5v-119.91c0-17.92,14.58-32.5,32.5-32.5s32.5,14.58,32.5,32.5v119.91c0,17.92-14.58,32.5-32.5,32.5ZM815.92,364.78c-15.14,0-27.46,12.32-27.46,27.46v119.91c0,15.14,12.32,27.46,27.46,27.46s27.46-12.32,27.46-27.46v-119.91c0-15.14-12.32-27.46-27.46-27.46Z" style="fill: #192e58;"/>
        </g>
        <g>
          <path d="M456.18,542.13c-16.57,0-29.98-13.41-29.98-29.98v-119.91c0-16.57,13.41-29.98,29.98-29.98s29.98,13.41,29.98,29.98v119.91c0,16.57-13.41,29.98-29.98,29.98Z" style="fill: #ecf2ff;"/>
          <path d="M456.18,544.65c-17.92,0-32.5-14.58-32.5-32.5v-119.91c0-17.92,14.58-32.5,32.5-32.5s32.5,14.58,32.5,32.5v119.91c0,17.92-14.58,32.5-32.5,32.5ZM456.18,364.78c-15.14,0-27.46,12.32-27.46,27.46v119.91c0,15.14,12.32,27.46,27.46,27.46s27.46-12.32,27.46-27.46v-119.91c0-15.14-12.32-27.46-27.46-27.46Z" style="fill: #192e58;"/>
        </g>
        <g>
          <path d="M636.05,542.13c-16.57,0-29.98-13.41-29.98-29.98v-119.91c0-16.57,13.41-29.98,29.98-29.98s29.98,13.41,29.98,29.98v119.91c0,16.57-13.41,29.98-29.98,29.98Z" style="fill: #ecf2ff;"/>
          <path d="M636.05,544.65c-17.92,0-32.5-14.58-32.5-32.5v-119.91c0-17.92,14.58-32.5,32.5-32.5s32.5,14.58,32.5,32.5v119.91c0,17.92-14.58,32.5-32.5,32.5ZM636.05,364.78c-15.14,0-27.46,12.32-27.46,27.46v119.91c0,15.14,12.32,27.46,27.46,27.46s27.46-12.32,27.46-27.46v-119.91c0-15.14-12.32-27.46-27.46-27.46Z" style="fill: #192e58;"/>
        </g>
        <g>
          <path d="M220.91,291.4c-1.08,15.74,6.63,31.01,18.13,41.63,3.82,3.52,9.95,1.8,11.38-3.19,3.34-11.65,2.63-20.58-.65-39.16-2.78-15.77-9.46-32.65-18.81-22.31-5.97,6.16-9.43,14.52-10.06,23.04h0Z" style="fill: #fff;"/>
          <path d="M248.55,351.8c1.51,5.32,3.98,10.35,7.28,14.78,1.02,1.36,2.5,2.81,4.15,2.41,1.97-.49,2.37-3.1,2.21-5.11-.56-6.84-3.08-13.55-7.13-19.08-1.53-2.09-3.49-4.06-6-1.95-2.51,2.12-1.27,6.28-.51,8.94h0Z" style="fill: #fff;"/>
        </g>
        <g style="mix-blend-mode: multiply; opacity: .3;">
          <path d="M1025.36,277.24l-59.96,359.74c-2.22,13.38-13.11,23.57-26.64,24.92-325.58,32.21-476.24,47.26-545.43,54.17l367.27-89.71c82.9-20.25,146.99-86.03,165.06-169.44l46.49-214.58h23.64c8.78,0,17.16,3.87,22.89,10.6,5.68,6.73,8.13,15.61,6.67,24.3Z" style="fill: #fa7532;"/>
        </g>
      </g>
    </g>
  </g>
</svg>